:SAMPLES-PER-SECOND 24
:FULLY-SPECIFIED
:DEGREES
65
root  6.63243 38.5136 32.6196 -176.729 -59.6156 173.157
RightUpLeg  -14.0538 0.476093 -18.5811
RightLeg  14.1711 3.2847 0.393352
RightFoot  1.12242 -0.246108 2.32288
RightToes  -1.74623e-010 0 -2.59999e-017
Spine  2.66627 -0.193442 -4.98191
Spine1  9.61008 -0.18972 -1.13769
HEad  -19.6747 -35.1846 16.3106
LeftShoulder1  1.8361 -2.63624 -23.6559
LeftArm  20.9948 12.4499 -28.898
LeftForeArm  77.6741 -79.4492 -87.448
LeftHand  0.186564 12.4746 4.00716
RightShoulder  2.5188 4.41478 25.7767
RightArm  -17.8686 -21.8108 29.675
RightForeArm  128.513 72.0868 143.824
RightHand  -0.0474289 -5.99521 2.3402
LeftUpLeg  11.9886 4.69259 7.53119
LeftLeg  8.87735 17.1107 2.05882
LeftFoot  -11.1434 0.098373 -18.3982
LeftToes  -6.27559e-011 -2.10356e-011 8.24929e-012
66
root  6.6596 38.3085 31.9366 -176.474 -58.4728 172.99
RightUpLeg  -16.49 -2.63871 -18.4079
RightLeg  18.4763 6.32977 2.20322
RightFoot  1.05317 -0.918122 8.55418
RightToes  -1.74623e-010 0 -2.59999e-017
Spine  2.62476 0.124925 -2.63091
Spine1  8.94283 1.02082 -4.62077
HEad  -18.8082 -35.0141 15.8417
LeftShoulder1  1.85628 -2.5656 -24.3679
LeftArm  17.4876 10.0717 -32.6429
LeftForeArm  78.9759 -79.5457 -86.3572
LeftHand  0.262091 12.3918 5.24495
RightShoulder  2.49402 4.42386 25.4112
RightArm  -19.0014 -17.0233 31.3312
RightForeArm  87.482 79.0994 99.4085
RightHand  -0.07306 -3.98465 -3.97719
LeftUpLeg  11.9502 4.9928 8.15691
LeftLeg  10.2765 17.7967 2.8095
LeftFoot  -11.3179 0.0712096 -19.7617
LeftToes  -6.27559e-011 -2.10356e-011 8.24929e-012
67
root  6.73483 38.0645 31.1393 -178.098 -58.2119 173.34
RightUpLeg  -17.3119 -6.33052 -17.2801
RightLeg  23.907 10.1341 4.67597
RightFoot  -1.48183 -0.891931 10.1679
RightToes  -1.74623e-010 0 -2.59999e-017
Spine  3.74053 -0.275743 -2.51972
Spine1  9.77073 0.561046 -4.97376
HEad  -19.7197 -33.4618 15.8771
LeftShoulder1  2.04011 -2.8547 -25.9324
LeftArm  12.1996 8.77602 -37.1296
LeftForeArm  80.8762 -79.5025 -89.7281
LeftHand  0.324442 11.4687 7.06935
RightShoulder  2.55151 4.52911 25.7276
RightArm  -16.9732 -7.66045 31.5029
RightForeArm  23.2638 70.1593 32.3141
RightHand  -0.474611 -0.719731 -11.446
LeftUpLeg  13.1403 6.03155 10.2476
LeftLeg  12.0728 16.4101 3.07361
LeftFoot  -11.5359 0.0325411 -21.0338
LeftToes  -6.27559e-011 -2.10356e-011 8.24929e-012
68
root  6.88602 37.8522 30.3774 -179.033 -58.6026 173.223
RightUpLeg  -17.6433 -7.22389 -16.4797
RightLeg  27.988 10.4759 5.76941
RightFoot  -3.0813 -0.744829 9.99999
RightToes  -1.74623e-010 0 -2.59999e-017
Spine  4.86477 -1.01422 -3.24615
Spine1  10.8162 -0.531813 -3.99482
HEad  -20.3535 -32.0792 15.7719
LeftShoulder1  2.24032 -3.22461 -27.1957
LeftArm  9.99815 5.14763 -41.5154
LeftForeArm  71.9249 -79.2261 -86.5638
LeftHand  0.444282 10.3901 11.1361
RightShoulder  2.62167 4.66069 26.09
RightArm  -13.3446 2.9515 32.3092
RightForeArm  5.96477 49.0382 12.7292
RightHand  -0.932686 1.3264 -16.2438
LeftUpLeg  13.1198 7.40724 12.2535
LeftLeg  14.9317 14.5638 3.73788
LeftFoot  -11.2962 0.0756371 -21.8536
LeftToes  -6.27559e-011 -2.10356e-011 8.24929e-012
69
root  7.10226 37.7145 29.7835 -176.172 -58.9438 170.944
RightUpLeg  -19.8023 -7.12387 -16.782
RightLeg  30.9363 9.36101 5.7884
RightFoot  -4.41451 -0.603359 9.45055
RightToes  -1.74623e-010 0 -2.59999e-017
Spine  5.25893 -1.44191 -3.28292
Spine1  10.3919 -0.695621 -4.86662
HEad  -20.4175 -32.296 15.7191
LeftShoulder1  2.30422 -3.43746 -27.0955
LeftArm  13.8593 -2.12117 -45.6418
LeftForeArm  56.6912 -78.7156 -77.2887
LeftHand  0.533503 9.66687 15.071
RightShoulder  2.69057 4.83898 26.2343
RightArm  -11.7221 7.86856 34.1067
RightForeArm  6.49342 33.2788 7.0226
RightHand  -0.339221 -2.90811 -15.4896
LeftUpLeg  9.35652 8.8971 12.1189
LeftLeg  20.1944 13.0456 5.35461
LeftFoot  -10.0928 0.308702 -22.5609
LeftToes  -6.27559e-011 -2.10356e-011 8.24929e-012
70
root  7.27245 37.825 29.2986 -172.584 -60.857 168.346
RightUpLeg  -20.5218 -7.81447 -17.1757
RightLeg  31.4005 8.09094 5.07627
RightFoot  -5.22033 -0.498985 8.65948
RightToes  -1.74623e-010 0 -2.59999e-017
Spine  5.28303 -2.00235 -2.79433
Spine1  10.3911 -0.937589 -5.67633
HEad  -22.0206 -33.3738 16.5453
LeftShoulder1  2.23352 -3.42031 -26.1218
LeftArm  20.6973 -11.0878 -50.4071
LeftForeArm  51.5085 -78.463 -73.4103
LeftHand  0.520105 9.65537 14.7923
RightShoulder  2.77981 5.00672 26.6631
RightArm  -13.4436 5.46986 35.1627
RightForeArm  17.5156 30.1411 5.59503
RightHand  0.347172 -9.74 -10.0761
LeftUpLeg  4.01006 10.444 12.0674
LeftLeg  25.9621 11.1589 6.22156
LeftFoot  -6.23804 1.01593 -21.8435
LeftToes  -6.27559e-011 -2.10356e-011 8.24929e-012
